<?xml version="1.0" standalone="no"?>
<!DOCTYPE svg PUBLIC "-//W3C//DTD SVG 20010904//EN"
 "http://www.w3.org/TR/2001/REC-SVG-20010904/DTD/svg10.dtd">
<svg version="1.0" xmlns="http://www.w3.org/2000/svg"
 width="512.000000pt" height="512.000000pt" viewBox="0 0 512.000000 512.000000"
 preserveAspectRatio="xMidYMid meet">

<g transform="translate(0.000000,512.000000) scale(0.100000,-0.100000)"
fill="#000000" stroke="none">
<path d="M1490 4256 c-110 -24 -211 -94 -268 -184 -17 -26 -96 -229 -177 -452
-81 -223 -161 -433 -177 -468 -21 -42 -65 -99 -140 -180 -125 -133 -192 -229
-236 -334 -61 -148 -62 -157 -62 -923 0 -752 -1 -735 53 -793 50 -54 92 -66
239 -70 176 -5 229 9 286 73 50 57 62 104 62 246 l0 112 136 -6 c76 -3 431
-12 791 -19 519 -9 780 -9 1261 0 334 7 649 16 700 19 l92 6 0 -112 c0 -151
12 -194 70 -252 61 -61 110 -72 285 -68 116 4 135 7 175 29 24 14 58 45 75 68
l30 44 3 706 c3 781 2 790 -60 941 -43 103 -110 197 -236 333 -74 80 -119 138
-140 180 -16 35 -96 245 -177 468 -81 223 -160 426 -177 452 -59 94 -169 166
-283 187 -88 16 -2051 14 -2125 -3z m2099 -239 c23 -15 51 -42 61 -60 19 -31
290 -830 290 -855 0 -9 -283 -12 -1380 -12 -1105 0 -1380 3 -1380 13 0 19 265
808 283 844 18 34 66 75 107 92 16 6 373 9 1001 8 l975 -2 43 -28z m-831
-1149 c7 -7 12 -20 12 -30 0 -11 -32 -138 -72 -284 -39 -145 -69 -266 -67
-268 2 -2 87 2 189 8 102 7 190 11 197 8 17 -5 26 -38 16 -56 -28 -48 -621
-796 -636 -801 -22 -8 -47 11 -47 37 0 11 32 138 72 284 39 145 69 266 67 268
-2 2 -58 0 -124 -4 -268 -19 -284 -17 -285 27 0 12 614 802 634 815 16 11 30
10 44 -4z"/>
</g>
</svg>
