<?xml version="1.0" standalone="no"?>
<!DOCTYPE svg PUBLIC "-//W3C//DTD SVG 20010904//EN"
 "http://www.w3.org/TR/2001/REC-SVG-20010904/DTD/svg10.dtd">
<svg version="1.0" xmlns="http://www.w3.org/2000/svg"
 width="512.000000pt" height="512.000000pt" viewBox="0 0 512.000000 512.000000"
 preserveAspectRatio="xMidYMid meet">

<g transform="translate(0.000000,512.000000) scale(0.100000,-0.100000)"
fill="#000000" stroke="none">
<path d="M1052 4395 c-188 -239 -342 -437 -342 -440 0 -3 71 -5 158 -5 171 0
193 -6 213 -56 6 -18 -5 -121 -41 -362 -27 -185 -48 -337 -47 -339 1 -1 157
195 346 435 l344 437 -166 5 c-177 5 -198 12 -211 63 -3 12 17 173 43 357 27
184 48 336 47 337 -2 2 -156 -193 -344 -432z"/>
<path d="M3286 3462 c-77 -64 -148 -129 -159 -144 -11 -14 -22 -48 -24 -75 -4
-43 3 -65 70 -213 214 -471 348 -839 393 -1077 13 -68 15 -122 11 -238 -11
-315 -91 -486 -265 -568 l-67 -32 -235 0 -235 0 -59 28 c-78 36 -136 85 -176
146 -54 86 -61 124 -69 376 l-6 230 -30 53 c-38 70 -112 136 -181 161 -53 20
-74 21 -694 21 -699 0 -708 -1 -856 -60 -293 -117 -501 -398 -530 -715 l-7
-75 587 0 c651 0 677 -2 811 -64 205 -96 336 -267 389 -508 l6 -28 894 0 c994
0 906 -7 906 69 0 58 27 149 70 236 69 140 165 236 305 305 130 65 170 71 448
77 224 5 250 7 272 25 33 26 41 76 20 119 -96 190 -330 324 -626 360 -131 16
-144 27 -154 125 -26 287 -184 622 -471 1006 -41 55 -74 108 -74 118 0 38 23
69 71 95 27 14 49 30 49 36 0 21 -214 329 -229 329 -9 0 -79 -53 -155 -118z"/>
<path d="M2589 3301 c-37 -38 -39 -82 -4 -116 24 -25 27 -25 187 -25 l163 0 1
85 0 85 -159 0 -159 0 -29 -29z"/>
<path d="M659 2537 c-40 -27 -59 -60 -59 -105 0 -43 22 -84 57 -108 27 -18 62
-19 843 -22 448 -2 835 0 859 3 32 5 54 16 78 40 29 29 33 40 33 84 0 44 -5
56 -34 89 l-34 37 -855 3 -854 2 -34 -23z"/>
<path d="M4289 1171 c-88 -28 -154 -69 -218 -135 -99 -104 -141 -212 -141
-360 0 -107 26 -191 85 -280 124 -188 373 -271 589 -197 192 67 327 244 342
450 17 227 -123 439 -341 516 -88 31 -229 34 -316 6z"/>
<path d="M528 1075 c-134 -101 -210 -302 -179 -473 37 -205 192 -369 393 -417
291 -69 580 135 617 434 20 163 -36 319 -154 430 l-66 61 -283 0 -283 0 -45
-35z"/>
<path d="M1435 1034 c39 -65 71 -144 86 -216 l11 -48 114 0 c63 0 114 3 114 6
0 3 -14 33 -32 66 -59 110 -192 218 -300 244 l-28 6 35 -58z"/>
</g>
</svg>
