<?xml version="1.0" standalone="no"?>
<!DOCTYPE svg PUBLIC "-//W3C//DTD SVG 20010904//EN"
 "http://www.w3.org/TR/2001/REC-SVG-20010904/DTD/svg10.dtd">
<svg version="1.0" xmlns="http://www.w3.org/2000/svg"
 width="512.000000pt" height="512.000000pt" viewBox="0 0 512.000000 512.000000"
 preserveAspectRatio="xMidYMid meet">

<g transform="translate(0.000000,512.000000) scale(0.100000,-0.100000)"
fill="#000000" stroke="none">
<path d="M2385 4928 c-9 -18 -118 -285 -244 -593 l-229 -560 369 -3 c203 -1
369 -5 369 -8 0 -4 -54 -118 -120 -255 l-120 -249 0 -179 0 -180 163 93 162
93 247 519 c136 286 247 525 247 531 1 10 -84 13 -377 15 l-379 3 164 394 c89
217 163 398 163 403 0 4 -90 8 -200 8 l-200 0 -15 -32z"/>
<path d="M3410 3372 l0 -192 115 0 c130 0 171 -13 219 -70 34 -41 41 -68 41
-170 l0 -85 -170 -6 c-130 -5 -187 -12 -243 -28 -93 -27 -210 -86 -289 -145
-124 -93 -134 -108 -538 -749 -103 -164 -191 -295 -195 -290 -13 14 -690 1061
-690 1067 0 3 63 6 140 6 l140 0 0 190 0 190 -390 0 -390 0 0 -155 0 -155 144
-222 144 -222 -35 -80 c-19 -45 -41 -96 -48 -113 -14 -32 -15 -33 -62 -25 -26
4 -109 7 -183 6 -165 -1 -259 -23 -405 -94 -214 -103 -364 -256 -466 -475 -67
-143 -82 -216 -83 -400 -1 -126 3 -176 18 -235 57 -224 184 -419 357 -550 405
-304 944 -270 1295 84 131 132 209 267 259 449 l21 79 85 32 c145 54 267 140
361 253 27 32 182 271 345 532 332 529 361 568 485 626 93 44 160 56 290 53
l103 -3 0 -179 0 -179 -100 -32 c-171 -54 -283 -122 -406 -244 -180 -181 -273
-391 -286 -646 -9 -207 38 -394 142 -559 71 -114 125 -175 220 -252 397 -320
969 -287 1321 78 381 393 372 1011 -20 1392 -117 114 -297 213 -446 248 l-50
11 0 472 c0 438 -1 477 -20 549 -26 102 -69 176 -150 257 -115 116 -222 157
-437 166 l-143 6 0 -191z m-1521 -1716 c100 -153 181 -282 181 -286 0 -22
-103 -32 -362 -37 -153 -3 -278 -2 -278 2 0 3 52 129 116 278 65 150 123 287
131 306 8 19 18 30 23 25 4 -5 90 -134 189 -288z m-710 95 c11 -7 -8 -60 -99
-273 -62 -144 -117 -279 -121 -298 -11 -48 13 -128 48 -162 58 -55 76 -58 408
-58 l306 0 -6 -22 c-18 -60 -84 -159 -150 -224 -116 -115 -259 -174 -420 -174
-406 1 -701 388 -588 774 47 159 166 302 315 375 107 53 269 86 307 62z m2613
-354 l3 -324 29 -37 c83 -109 256 -94 315 26 20 42 21 59 21 351 0 239 3 307
13 307 50 0 199 -102 265 -182 204 -244 188 -594 -37 -819 -119 -118 -262
-179 -423 -179 -107 0 -168 15 -273 65 -233 112 -369 363 -335 617 6 43 17 97
25 119 49 139 165 275 290 341 114 61 104 87 107 -285z"/>
</g>
</svg>
